<svg viewBox="0 0 600 600" xmlns="http://www.w3.org/2000/svg" role="img" aria-label="Knitted flower illustration">
  <defs><linearGradient id="bg35" x1="0" y1="0" x2="1" y2="1">
      <stop offset="0%" stop-color="#fffde7"/>
      <stop offset="100%" stop-color="#fff2b3"/>
    </linearGradient></defs>
  <rect width="600" height="600" fill="url(#bg35)"/>
  <circle cx="300.0" cy="300.0" r="243.0" fill="none" stroke="#8a6d00" stroke-width="1" stroke-dasharray="4 6" opacity="0.25"/>
  <path d="M300.0,300.0 Q223.6,223.7 223.9,136.9 Q290.7,192.4 300.0,300.0 Z" fill="#ffe066" opacity="0.92" stroke="#8a6d00" stroke-width="1.4" stroke-linejoin="round"/><path d="M300.0,300.0 Q327.9,195.7 403.2,152.6 Q388.5,238.1 300.0,300.0 Z" fill="#ffe066" opacity="0.92" stroke="#8a6d00" stroke-width="1.4" stroke-linejoin="round"/><path d="M300.0,300.0 Q404.3,272.0 479.3,315.7 Q397.8,345.7 300.0,300.0 Z" fill="#ffe066" opacity="0.92" stroke="#8a6d00" stroke-width="1.4" stroke-linejoin="round"/><path d="M300.0,300.0 Q376.4,376.3 376.1,463.1 Q309.3,407.6 300.0,300.0 Z" fill="#ffe066" opacity="0.92" stroke="#8a6d00" stroke-width="1.4" stroke-linejoin="round"/><path d="M300.0,300.0 Q272.1,404.3 196.8,447.4 Q211.5,361.9 300.0,300.0 Z" fill="#ffe066" opacity="0.92" stroke="#8a6d00" stroke-width="1.4" stroke-linejoin="round"/><path d="M300.0,300.0 Q195.7,328.0 120.7,284.3 Q202.2,254.3 300.0,300.0 Z" fill="#ffe066" opacity="0.92" stroke="#8a6d00" stroke-width="1.4" stroke-linejoin="round"/>
  <circle cx="300.0" cy="300.0" r="96.0" fill="#8a6d00"/>
</svg>