<svg viewBox="0 0 600 600" xmlns="http://www.w3.org/2000/svg" role="img" aria-label="Knitted flower illustration">
  <defs><linearGradient id="bg70" x1="0" y1="0" x2="1" y2="1">
      <stop offset="0%" stop-color="#fffaf2"/>
      <stop offset="100%" stop-color="#f7e9d0"/>
    </linearGradient></defs>
  <rect width="600" height="600" fill="url(#bg70)"/>
  <circle cx="300.0" cy="300.0" r="243.0" fill="none" stroke="#8a6d3c" stroke-width="1" stroke-dasharray="4 6" opacity="0.25"/>
  <path d="M300.0,300.0 Q263.2,401.5 184.3,437.9 Q206.4,353.9 300.0,300.0 Z" fill="#f2e6d6" opacity="0.92" stroke="#8a6d3c" stroke-width="1.4" stroke-linejoin="round"/><path d="M300.0,300.0 Q193.7,318.9 122.7,268.7 Q206.5,245.9 300.0,300.0 Z" fill="#f2e6d6" opacity="0.92" stroke="#8a6d3c" stroke-width="1.4" stroke-linejoin="round"/><path d="M300.0,300.0 Q230.5,217.3 238.4,130.9 Q300.1,192.0 300.0,300.0 Z" fill="#f2e6d6" opacity="0.92" stroke="#8a6d3c" stroke-width="1.4" stroke-linejoin="round"/><path d="M300.0,300.0 Q336.8,198.5 415.7,162.1 Q393.6,246.1 300.0,300.0 Z" fill="#f2e6d6" opacity="0.92" stroke="#8a6d3c" stroke-width="1.4" stroke-linejoin="round"/><path d="M300.0,300.0 Q406.3,281.1 477.3,331.3 Q393.5,354.1 300.0,300.0 Z" fill="#f2e6d6" opacity="0.92" stroke="#8a6d3c" stroke-width="1.4" stroke-linejoin="round"/><path d="M300.0,300.0 Q369.5,382.7 361.6,469.1 Q299.9,408.0 300.0,300.0 Z" fill="#f2e6d6" opacity="0.92" stroke="#8a6d3c" stroke-width="1.4" stroke-linejoin="round"/>
  <circle cx="300.0" cy="300.0" r="96.0" fill="#8a6d3c"/>
</svg>