<svg viewBox="0 0 600 600" xmlns="http://www.w3.org/2000/svg" role="img" aria-label="Knitted flower illustration">
  <defs><linearGradient id="bg61" x1="0" y1="0" x2="1" y2="1">
      <stop offset="0%" stop-color="#fff2f6"/>
      <stop offset="100%" stop-color="#fbdce9"/>
    </linearGradient></defs>
  <rect width="600" height="600" fill="url(#bg61)"/>
  <circle cx="300.0" cy="300.0" r="243.0" fill="none" stroke="#a3305c" stroke-width="1" stroke-dasharray="4 6" opacity="0.25"/>
  <path d="M300.0,300.0 Q373.7,378.9 370.3,465.7 Q305.6,407.9 300.0,300.0 Z" fill="#f9c9d9" opacity="0.92" stroke="#a3305c" stroke-width="1.4" stroke-linejoin="round"/><path d="M300.0,300.0 Q268.5,403.3 191.7,443.8 Q209.4,358.7 300.0,300.0 Z" fill="#f9c9d9" opacity="0.92" stroke="#a3305c" stroke-width="1.4" stroke-linejoin="round"/><path d="M300.0,300.0 Q194.8,324.4 121.3,278.1 Q203.8,250.9 300.0,300.0 Z" fill="#f9c9d9" opacity="0.92" stroke="#a3305c" stroke-width="1.4" stroke-linejoin="round"/><path d="M300.0,300.0 Q226.3,221.1 229.7,134.3 Q294.4,192.1 300.0,300.0 Z" fill="#f9c9d9" opacity="0.92" stroke="#a3305c" stroke-width="1.4" stroke-linejoin="round"/><path d="M300.0,300.0 Q331.5,196.7 408.3,156.2 Q390.6,241.3 300.0,300.0 Z" fill="#f9c9d9" opacity="0.92" stroke="#a3305c" stroke-width="1.4" stroke-linejoin="round"/><path d="M300.0,300.0 Q405.2,275.6 478.7,321.9 Q396.2,349.1 300.0,300.0 Z" fill="#f9c9d9" opacity="0.92" stroke="#a3305c" stroke-width="1.4" stroke-linejoin="round"/>
  <circle cx="300.0" cy="300.0" r="96.0" fill="#a3305c"/>
</svg>