<svg viewBox="0 0 600 600" xmlns="http://www.w3.org/2000/svg" role="img" aria-label="Knitted flower illustration">
  <defs><linearGradient id="bg13" x1="0" y1="0" x2="1" y2="1">
      <stop offset="0%" stop-color="#fff0f5"/>
      <stop offset="100%" stop-color="#fbd7e5"/>
    </linearGradient></defs>
  <rect width="600" height="600" fill="url(#bg13)"/>
  <circle cx="300.0" cy="300.0" r="243.0" fill="none" stroke="#a3305c" stroke-width="1" stroke-dasharray="4 6" opacity="0.25"/>
  <path d="M300.0,300.0 Q335.3,402.1 296.9,480.0 Q261.2,400.8 300.0,300.0 Z" fill="#f7a8c4" opacity="0.92" stroke="#a3305c" stroke-width="1.4" stroke-linejoin="round"/><path d="M300.0,300.0 Q252.7,397.1 170.5,425.0 Q201.3,343.8 300.0,300.0 Z" fill="#f7a8c4" opacity="0.92" stroke="#a3305c" stroke-width="1.4" stroke-linejoin="round"/><path d="M300.0,300.0 Q197.9,335.3 120.0,296.9 Q199.2,261.2 300.0,300.0 Z" fill="#f7a8c4" opacity="0.92" stroke="#a3305c" stroke-width="1.4" stroke-linejoin="round"/><path d="M300.0,300.0 Q202.9,252.7 175.0,170.5 Q256.2,201.3 300.0,300.0 Z" fill="#f7a8c4" opacity="0.92" stroke="#a3305c" stroke-width="1.4" stroke-linejoin="round"/><path d="M300.0,300.0 Q264.7,197.9 303.1,120.0 Q338.8,199.2 300.0,300.0 Z" fill="#f7a8c4" opacity="0.92" stroke="#a3305c" stroke-width="1.4" stroke-linejoin="round"/><path d="M300.0,300.0 Q347.3,202.9 429.5,175.0 Q398.7,256.2 300.0,300.0 Z" fill="#f7a8c4" opacity="0.92" stroke="#a3305c" stroke-width="1.4" stroke-linejoin="round"/><path d="M300.0,300.0 Q402.1,264.7 480.0,303.1 Q400.8,338.8 300.0,300.0 Z" fill="#f7a8c4" opacity="0.92" stroke="#a3305c" stroke-width="1.4" stroke-linejoin="round"/><path d="M300.0,300.0 Q397.1,347.3 425.0,429.5 Q343.8,398.7 300.0,300.0 Z" fill="#f7a8c4" opacity="0.92" stroke="#a3305c" stroke-width="1.4" stroke-linejoin="round"/>
  <circle cx="300.0" cy="300.0" r="96.0" fill="#a3305c"/>
</svg>